<?xml version="1.0" standalone="no"?>
<!DOCTYPE svg PUBLIC "-//W3C//DTD SVG 20010904//EN"
 "http://www.w3.org/TR/2001/REC-SVG-20010904/DTD/svg10.dtd">
<svg version="1.0" xmlns="http://www.w3.org/2000/svg"
 width="512.000000pt" height="512.000000pt" viewBox="0 0 512.000000 512.000000"
 preserveAspectRatio="xMidYMid meet">
<metadata>
Created by potrace 1.11, written by Peter Selinger 2001-2013
</metadata>
<g transform="translate(0.000000,512.000000) scale(0.100000,-0.100000)"
fill="#000000" stroke="none">
<path d="M1163 4515 c-130 -35 -257 -132 -313 -238 l-25 -47 -193 0 c-201 0
-225 -4 -276 -49 -49 -43 -71 -149 -45 -218 15 -40 57 -82 104 -104 34 -16 66
-19 227 -19 l188 0 21 -42 c12 -23 44 -65 71 -94 101 -107 212 -155 358 -155
146 0 257 48 358 155 225 237 153 632 -140 771 -116 55 -229 68 -335 40z m256
-221 c100 -54 153 -145 152 -263 0 -80 -31 -149 -91 -205 -66 -62 -109 -79
-200 -79 -87 -1 -145 22 -206 81 -128 124 -110 352 36 448 64 43 109 55 186
51 54 -3 82 -10 123 -33z"/>
<path d="M3711 3034 c-114 -30 -217 -107 -283 -209 l-39 -60 -1477 -5 c-1454
-5 -1478 -5 -1511 -25 -19 -11 -48 -37 -65 -58 -29 -36 -31 -44 -31 -117 0
-73 2 -81 31 -117 17 -21 46 -47 65 -58 33 -20 57 -20 1511 -25 l1477 -5 39
-60 c139 -215 420 -288 646 -167 65 34 164 133 198 198 146 273 6 613 -291
704 -75 24 -191 25 -270 4z m245 -204 c54 -23 109 -73 141 -128 37 -63 45
-188 15 -254 -28 -64 -85 -123 -148 -154 -49 -24 -63 -26 -138 -22 -67 3 -92
9 -128 31 -97 57 -150 147 -150 257 0 211 214 353 408 270z"/>
<path d="M2495 1569 c-117 -15 -206 -61 -293 -153 -27 -29 -59 -71 -71 -94
l-21 -42 -828 0 c-784 0 -829 -1 -867 -19 -47 -22 -89 -64 -104 -104 -26 -69
-4 -175 45 -218 58 -51 21 -49 916 -49 l833 0 25 -47 c64 -122 212 -223 359
-246 239 -37 485 124 546 358 88 339 -191 657 -540 614z m190 -219 c130 -63
196 -218 155 -358 -19 -61 -78 -131 -140 -166 -50 -28 -63 -31 -140 -31 -76 0
-91 3 -139 30 -237 131 -190 477 74 546 46 12 144 1 190 -21z"/>
</g>
</svg>
